HIERARCHY
ROOT Hips
{
	OFFSET 0.764148 87.890884 8.039708
	CHANNELS 6 Xposition Yposition Zposition Zrotation Yrotation Xrotation 
	JOINT Spine
	{
		OFFSET -0.000000 8.814246 -2.080107
		CHANNELS 3 Zrotation Yrotation Xrotation
		JOINT Spine1
		{
			OFFSET 0.000000 8.844141 0.000000
			CHANNELS 3 Zrotation Yrotation Xrotation
			JOINT Spine2
			{
				OFFSET -0.000000 11.682268 -0.000000
				CHANNELS 3 Zrotation Yrotation Xrotation
				JOINT Spine3
				{
					OFFSET 0.000000 11.746700 0.000000
					CHANNELS 3 Zrotation Yrotation Xrotation
					JOINT Neck
					{
						OFFSET 0.000000 17.658264 0.000000
						CHANNELS 3 Zrotation Yrotation Xrotation
						JOINT Neck1
						{
							OFFSET -0.000000 5.101515 0.000000
							CHANNELS 3 Zrotation Yrotation Xrotation
							JOINT Head
							{
								OFFSET 0.000000 5.101515 -0.000000
								CHANNELS 3 Zrotation Yrotation Xrotation
								JOINT HeadEnd
								{
									OFFSET 0.000000 11.655085 0.000000
									CHANNELS 3 Zrotation Yrotation Xrotation
									End Site
									{
										OFFSET 0.000000 0.000000 0.000000
									}
								}
							}
						}
					}
					JOINT RightShoulder
					{
						OFFSET -2.625389 11.175210 -0.000000
						CHANNELS 3 Zrotation Yrotation Xrotation
						JOINT RightArm
						{
							OFFSET 0.000000 10.434715 -0.000000
							CHANNELS 3 Zrotation Yrotation Xrotation
							JOINT RightForeArm
							{
								OFFSET 0.000000 29.628420 -0.000000
								CHANNELS 3 Zrotation Yrotation Xrotation
								JOINT RightHand
								{
									OFFSET 0.000000 22.857611 0.000000
									CHANNELS 3 Zrotation Yrotation Xrotation
									JOINT RightHandThumb1
									{
										OFFSET -2.867323 3.959563 2.944291
										CHANNELS 3 Zrotation Yrotation Xrotation
										JOINT RightHandThumb2
										{
											OFFSET 0.000000 3.350399 -0.000000
											CHANNELS 3 Zrotation Yrotation Xrotation
											JOINT RightHandThumb3
											{
												OFFSET 0.000000 3.756509 -0.000000
												CHANNELS 3 Zrotation Yrotation Xrotation
												JOINT RightHandThumb4
												{
													OFFSET 0.000000 3.147345 -0.000000
													CHANNELS 3 Zrotation Yrotation Xrotation
													End Site
													{
														OFFSET 0.000000 0.000000 0.000000
													}
												}
											}
										}
									}
									JOINT RightHandIndex1
									{
										OFFSET -0.086752 10.030893 2.345280
										CHANNELS 3 Zrotation Yrotation Xrotation
										JOINT RightHandIndex2
										{
											OFFSET -0.000000 4.061090 -0.000000
											CHANNELS 3 Zrotation Yrotation Xrotation
											JOINT RightHandIndex3
											{
												OFFSET 0.000000 3.248873 -0.000000
												CHANNELS 3 Zrotation Yrotation Xrotation
												JOINT RightHandIndex4
												{
													OFFSET 0.000000 2.639709 0.000000
													CHANNELS 3 Zrotation Yrotation Xrotation
													End Site
													{
														OFFSET 0.000000 0.000000 0.000000
													}
												}
											}
										}
									}
									JOINT RightHandMiddle1
									{
										OFFSET 0.104102 9.502952 0.006768
										CHANNELS 3 Zrotation Yrotation Xrotation
										JOINT RightHandMiddle2
										{
											OFFSET 0.000000 4.568727 -0.000000
											CHANNELS 3 Zrotation Yrotation Xrotation
											JOINT RightHandMiddle3
											{
												OFFSET 0.000000 3.654981 -0.000000
												CHANNELS 3 Zrotation Yrotation Xrotation
												JOINT RightHandMiddle4
												{
													OFFSET 0.000000 2.741236 -0.000000
													CHANNELS 3 Zrotation Yrotation Xrotation
													End Site
													{
														OFFSET 0.000000 0.000000 0.000000
													}
												}
											}
										}
									}
									JOINT RightHandRing1
									{
										OFFSET 0.086752 8.921708 -2.267442
										CHANNELS 3 Zrotation Yrotation Xrotation
										JOINT RightHandRing2
										{
											OFFSET 0.000000 4.061090 -0.000000
											CHANNELS 3 Zrotation Yrotation Xrotation
											JOINT RightHandRing3
											{
												OFFSET -0.000000 3.654981 -0.000000
												CHANNELS 3 Zrotation Yrotation Xrotation
												JOINT RightHandRing4
												{
													OFFSET -0.000000 2.741236 -0.000000
													CHANNELS 3 Zrotation Yrotation Xrotation
													End Site
													{
														OFFSET 0.000000 0.000000 0.000000
													}
												}
											}
										}
									}
									JOINT RightHandPinky1
									{
										OFFSET -0.173504 7.976997 -4.467199
										CHANNELS 3 Zrotation Yrotation Xrotation
										JOINT RightHandPinky2
										{
											OFFSET -0.000000 3.350399 -0.000000
											CHANNELS 3 Zrotation Yrotation Xrotation
											JOINT RightHandPinky3
											{
												OFFSET 0.000000 2.842763 0.000000
												CHANNELS 3 Zrotation Yrotation Xrotation
												JOINT RightHandPinky4
												{
													OFFSET -0.000000 2.639709 -0.000000
													CHANNELS 3 Zrotation Yrotation Xrotation
													End Site
													{
														OFFSET 0.000000 0.000000 0.000000
													}
												}
											}
										}
									}
									JOINT RightForeArmEnd
									{
										OFFSET 0.000000 0.000000 0.000000
										CHANNELS 3 Zrotation Yrotation Xrotation
										End Site
										{
											OFFSET 0.000000 0.000000 0.000000
										}
									}
								}
								JOINT RightArmEnd
								{
									OFFSET 0.000000 0.000000 0.000000
									CHANNELS 3 Zrotation Yrotation Xrotation
									End Site
									{
										OFFSET 0.000000 0.000000 0.000000
									}
								}
							}
						}
					}
					JOINT LeftShoulder
					{
						OFFSET 2.625389 11.175210 0.000000
						CHANNELS 3 Zrotation Yrotation Xrotation
						JOINT LeftArm
						{
							OFFSET -0.000000 10.813635 -0.000000
							CHANNELS 3 Zrotation Yrotation Xrotation
							JOINT LeftForeArm
							{
								OFFSET -0.000000 28.724781 0.000000
								CHANNELS 3 Zrotation Yrotation Xrotation
								JOINT LeftHand
								{
									OFFSET 0.644384 25.716167 -0.328871
									CHANNELS 3 Zrotation Yrotation Xrotation
									JOINT LeftHandThumb1
									{
										OFFSET 2.867323 3.959563 2.944291
										CHANNELS 3 Zrotation Yrotation Xrotation
										JOINT LeftHandThumb2
										{
											OFFSET 0.000000 3.350399 0.000000
											CHANNELS 3 Zrotation Yrotation Xrotation
											JOINT LeftHandThumb3
											{
												OFFSET 0.000000 3.756509 0.000000
												CHANNELS 3 Zrotation Yrotation Xrotation
												JOINT LeftHandThumb4
												{
													OFFSET -0.000000 3.100000 -0.000000
													CHANNELS 3 Zrotation Yrotation Xrotation
													End Site
													{
														OFFSET 0.000000 0.000000 0.000000
													}
												}
											}
										}
									}
									JOINT LeftHandIndex1
									{
										OFFSET 0.086752 10.030893 2.345280
										CHANNELS 3 Zrotation Yrotation Xrotation
										JOINT LeftHandIndex2
										{
											OFFSET 0.000000 4.061090 0.000000
											CHANNELS 3 Zrotation Yrotation Xrotation
											JOINT LeftHandIndex3
											{
												OFFSET -0.000000 3.248873 -0.000000
												CHANNELS 3 Zrotation Yrotation Xrotation
												JOINT LeftHandIndex4
												{
													OFFSET -0.000000 2.639709 0.000000
													CHANNELS 3 Zrotation Yrotation Xrotation
													End Site
													{
														OFFSET 0.000000 0.000000 0.000000
													}
												}
											}
										}
									}
									JOINT LeftHandMiddle1
									{
										OFFSET -0.104102 9.502952 0.006768
										CHANNELS 3 Zrotation Yrotation Xrotation
										JOINT LeftHandMiddle2
										{
											OFFSET -0.000000 4.568727 0.000000
											CHANNELS 3 Zrotation Yrotation Xrotation
											JOINT LeftHandMiddle3
											{
												OFFSET -0.000000 3.654981 0.000000
												CHANNELS 3 Zrotation Yrotation Xrotation
												JOINT LeftHandMiddle4
												{
													OFFSET 0.000000 2.741236 0.000000
													CHANNELS 3 Zrotation Yrotation Xrotation
													End Site
													{
														OFFSET 0.000000 0.000000 0.000000
													}
												}
											}
										}
									}
									JOINT LeftHandRing1
									{
										OFFSET -0.086752 8.921708 -2.267442
										CHANNELS 3 Zrotation Yrotation Xrotation
										JOINT LeftHandRing2
										{
											OFFSET 0.000000 4.061090 0.000000
											CHANNELS 3 Zrotation Yrotation Xrotation
											JOINT LeftHandRing3
											{
												OFFSET 0.000000 3.654981 0.000000
												CHANNELS 3 Zrotation Yrotation Xrotation
												JOINT LeftHandRing4
												{
													OFFSET 0.000000 2.741236 -0.000000
													CHANNELS 3 Zrotation Yrotation Xrotation
													End Site
													{
														OFFSET 0.000000 0.000000 0.000000
													}
												}
											}
										}
									}
									JOINT LeftHandPinky1
									{
										OFFSET 0.173504 7.976997 -4.467199
										CHANNELS 3 Zrotation Yrotation Xrotation
										JOINT LeftHandPinky2
										{
											OFFSET 0.000000 3.350399 -0.000000
											CHANNELS 3 Zrotation Yrotation Xrotation
											JOINT LeftHandPinky3
											{
												OFFSET 0.000000 2.842763 -0.000000
												CHANNELS 3 Zrotation Yrotation Xrotation
												JOINT LeftHandPinky4
												{
													OFFSET -0.000000 2.639709 -0.000000
													CHANNELS 3 Zrotation Yrotation Xrotation
													End Site
													{
														OFFSET 0.000000 0.000000 0.000000
													}
												}
											}
										}
									}
									JOINT LeftForeArmEnd
									{
										OFFSET 0.000000 0.000000 0.000000
										CHANNELS 3 Zrotation Yrotation Xrotation
										End Site
										{
											OFFSET 0.000000 0.000000 0.000000
										}
									}
								}
								JOINT LeftArmEnd
								{
									OFFSET 0.000000 0.000000 0.000000
									CHANNELS 3 Zrotation Yrotation Xrotation
									End Site
									{
										OFFSET 0.000000 0.000000 0.000000
									}
								}
							}
						}
					}
				}
			}
		}
	}
	JOINT RightUpLeg
	{
		OFFSET -11.289943 -0.000000 0.000000
		CHANNELS 3 Zrotation Yrotation Xrotation
		JOINT RightLeg
		{
			OFFSET 0.000000 -38.200325 -0.000000
			CHANNELS 3 Zrotation Yrotation Xrotation
			JOINT RightFoot
			{
				OFFSET 0.000000 -39.900856 0.000000
				CHANNELS 3 Zrotation Yrotation Xrotation
				JOINT RightToeBase
				{
					OFFSET -0.000000 -0.000000 15.261641
					CHANNELS 3 Zrotation Yrotation Xrotation
					JOINT RightToeBaseEnd
					{
						OFFSET 0.000000 0.000000 7.370709
						CHANNELS 3 Zrotation Yrotation Xrotation
						End Site
						{
							OFFSET 0.000000 0.000000 0.000000
						}
					}
				}
				JOINT RightLegEnd
				{
					OFFSET 0.000000 0.000000 0.000000
					CHANNELS 3 Zrotation Yrotation Xrotation
					End Site
					{
						OFFSET 0.000000 0.000000 0.000000
					}
				}
			}
			JOINT RightUpLegEnd
			{
				OFFSET 0.000000 0.000000 0.000000
				CHANNELS 3 Zrotation Yrotation Xrotation
				End Site
				{
					OFFSET 0.000000 0.000000 0.000000
				}
			}
		}
	}
	JOINT LeftUpLeg
	{
		OFFSET 11.315661 0.000000 0.000000
		CHANNELS 3 Zrotation Yrotation Xrotation
		JOINT LeftLeg
		{
			OFFSET -0.000000 -38.200325 0.000000
			CHANNELS 3 Zrotation Yrotation Xrotation
			JOINT LeftFoot
			{
				OFFSET 0.000000 -39.900856 0.000000
				CHANNELS 3 Zrotation Yrotation Xrotation
				JOINT LeftToeBase
				{
					OFFSET 0.000000 -0.000000 15.261641
					CHANNELS 3 Zrotation Yrotation Xrotation
					JOINT LeftToeBaseEnd
					{
						OFFSET -0.000000 0.000000 7.539996
						CHANNELS 3 Zrotation Yrotation Xrotation
						End Site
						{
							OFFSET 0.000000 0.000000 0.000000
						}
					}
				}
				JOINT LeftLegEnd
				{
					OFFSET 0.000000 0.000000 0.000000
					CHANNELS 3 Zrotation Yrotation Xrotation
					End Site
					{
						OFFSET 0.000000 0.000000 0.000000
					}
				}
			}
			JOINT LeftUpLegEnd
			{
				OFFSET 0.000000 0.000000 0.000000
				CHANNELS 3 Zrotation Yrotation Xrotation
				End Site
				{
					OFFSET 0.000000 0.000000 0.000000
				}
			}
		}
	}
}
MOTION
Frames: 4
Frame Time: 0.016667
0.764148 87.890884 8.039708 0.374749 0.140021 -20.487368 1.360808 -0.045345 10.760383 0.411646 0.162763 2.270701 -7.014422 3.973520 19.259388 -6.906528 0.490545 8.946464 -23.943913 3.964775 19.757568 -4.636087 -3.526213 4.251823 -2.222362 -2.433826 -18.873472 0.000000 0.000000 0.000000 92.085869 -0.550939 15.265782 47.046745 -44.637085 29.098366 -0.052951 12.872101 30.924927 6.722498 19.637011 -5.118998 10.637670 -1.840800 39.870987 0.000000 0.000000 -25.919998 0.000000 0.000000 -18.000004 0.000000 0.000000 0.000000 13.050940 0.000000 -9.409231 9.135656 0.000000 0.000000 9.135656 0.000000 0.000000 0.000000 0.000000 0.000000 12.600581 0.000000 -10.326110 8.820408 0.000000 0.000000 8.820408 0.000000 0.000000 0.000000 0.000000 0.000000 15.555212 -0.000001 -9.562082 10.888649 0.000000 0.000000 10.888649 0.000000 0.000000 0.000000 0.000000 0.000000 17.745337 0.000000 -10.487231 12.421734 0.000000 0.000000 12.421734 0.000000 0.000000 0.000000 0.000000 0.000000 0.000000 0.000000 0.000000 0.000000 0.000000 0.000000 -94.063194 0.737751 9.776923 -51.132179 16.883085 10.438984 -0.917146 -6.590941 37.312828 -6.590643 -20.348375 -11.134463 -10.637670 1.840800 39.870987 0.000000 0.000000 -25.919998 0.000000 0.000000 -18.000004 0.000000 0.000000 0.000000 -13.835908 0.000000 -9.249647 -9.685136 0.000000 0.000000 -9.685136 0.000000 0.000000 0.000000 0.000000 0.000000 -13.481020 0.000000 -10.363645 -9.436713 0.000000 0.000000 -9.436713 0.000000 0.000000 0.000000 0.000000 0.000000 -16.433882 -0.000000 -10.430699 -11.503717 0.000000 0.000000 -11.503717 0.000000 0.000000 0.000000 0.000000 0.000000 -18.445660 0.000000 -11.105450 -12.911960 0.000000 0.000000 -12.911960 0.000000 0.000000 0.000000 0.000000 0.000000 0.000000 0.000000 0.000000 0.000000 0.000000 0.000000 -9.014223 -11.569287 26.599995 -0.126483 -1.117180 6.259821 2.837546 -11.456786 14.945110 -0.895697 1.883620 -15.710292 0.000000 0.000000 0.000000 0.000000 0.000000 0.000000 0.000000 0.000000 0.000000 3.388245 -3.715308 19.247583 0.221753 0.932421 13.709390 -1.058385 -0.478602 13.747182 1.016154 -0.884220 -18.775427 0.000000 0.000000 0.000000 0.000000 0.000000 0.000000 0.000000 0.000000 0.000000 
0.764125 87.784081 7.842861 0.444425 -0.063509 -19.957798 1.153607 0.244532 10.961782 0.768875 0.338632 1.655081 -7.911733 4.912474 19.295626 -5.720749 0.989302 9.010328 -23.866875 3.730392 18.925392 -3.016640 -3.943895 4.044466 -1.935259 -2.463230 -19.776638 0.000000 0.000000 0.000000 92.603455 -0.460301 15.948859 50.926273 -40.350227 24.557924 -0.311333 11.921782 30.131142 5.984865 18.715675 -5.693573 10.482009 -1.800519 39.978630 0.000004 0.000009 -25.654175 -0.000003 0.000046 -17.768459 0.000006 -0.000002 -0.000023 12.477253 0.208466 -8.689163 9.404867 -0.017627 -0.137828 9.579775 0.000221 -0.148509 -0.000018 0.000016 -0.000010 12.476969 0.071032 -9.689749 8.936674 -0.025041 -0.079436 8.915396 0.010821 -0.072122 0.000033 0.000071 0.000015 15.971412 -0.121587 -8.738245 10.871684 0.030896 0.123127 10.815362 -0.016733 0.099709 -0.000027 -0.000117 0.000012 17.989965 -0.268571 -9.633003 12.036140 0.032070 0.452566 11.898964 -0.070603 0.353827 0.000008 0.000001 0.000036 0.000000 0.000000 0.000000 0.000000 0.000000 0.000000 -92.973183 0.675133 9.918950 -51.645386 20.952831 11.174410 -1.143642 -10.305555 37.372990 -7.659298 -17.787296 -11.386823 -10.535336 1.811949 39.946262 0.000009 0.000020 -25.738249 0.000086 -0.000012 -17.906363 0.000133 -0.000014 0.000865 -13.889771 0.261215 -10.175371 -9.821190 -0.039238 0.060771 -9.887490 -0.009899 0.105308 -0.000003 0.000280 -0.000020 -13.620803 0.117530 -10.969108 -9.615818 -0.034626 0.031067 -9.461915 0.001685 0.030346 0.000746 -0.000036 0.000000 -16.580797 -0.105470 -10.211946 -11.351242 0.068876 -0.062825 -11.315521 0.008301 -0.050425 0.000214 0.000011 0.000001 -18.415102 -0.320793 -10.051098 -12.667134 0.133325 -0.078973 -12.511172 0.017258 -0.099734 -0.000178 -0.000016 -0.000036 0.000000 0.000000 0.000000 0.000000 0.000000 0.000000 -9.085715 -13.506905 24.944916 -0.214514 -1.131099 8.518774 3.019757 -9.762612 12.910530 -0.942138 2.046410 -15.219402 0.000000 0.000000 0.000000 0.000000 0.000000 0.000000 0.000000 0.000000 0.000000 3.118507 -5.446425 18.249834 0.169861 0.680067 13.964171 -1.583260 2.398721 13.543176 1.005046 -0.960026 -18.395458 0.000000 0.000000 0.000000 0.000000 0.000000 0.000000 0.000000 0.000000 0.000000 
0.765818 87.788834 7.843172 0.403330 -0.102407 -19.950893 1.170429 0.225080 10.919294 0.738988 0.329631 1.772856 -7.864921 4.826979 19.112139 -5.679860 0.973348 9.067993 -23.714140 3.777518 18.970190 -3.001232 -3.812825 4.061563 -1.951861 -2.447911 -19.858946 0.000000 0.000000 0.000000 92.630295 -0.479890 15.869242 50.895744 -40.251827 24.580845 -0.309677 11.989287 29.954781 6.122851 18.768942 -5.765084 10.465492 -1.808328 39.970268 0.000008 0.000022 -25.649887 -0.000002 0.000045 -17.775873 0.000027 0.000007 -0.000036 12.422956 0.204087 -8.681869 9.341132 -0.022349 -0.132800 9.520992 -0.005384 -0.146639 -0.000004 0.000028 -0.000012 12.470544 0.069437 -9.695493 8.861407 -0.026646 -0.076525 8.837057 0.009216 -0.070787 0.000034 0.000062 0.000001 15.963888 -0.119409 -8.735237 10.769341 0.033822 0.117520 10.721057 -0.014098 0.094372 -0.000028 0.000045 -0.000001 17.993862 -0.262041 -9.669156 11.947652 0.042016 0.434496 11.804416 -0.061770 0.337788 0.000060 0.000005 0.000038 0.000000 0.000000 0.000000 0.000000 0.000000 0.000000 -93.048203 0.636748 9.826321 -52.078270 20.973984 10.750525 -1.153527 -10.115691 37.507187 -7.348187 -17.582605 -11.388793 -10.539865 1.816324 39.939182 0.000025 0.000029 -25.752563 0.000082 -0.000010 -17.908508 0.000130 -0.000005 0.000960 -14.091835 0.257932 -10.165442 -9.936595 -0.041390 0.050577 -9.992983 -0.011540 0.094587 0.000013 0.000287 -0.000008 -13.820346 0.116901 -10.958452 -9.703632 -0.034919 0.026671 -9.546623 0.001453 0.027127 0.000799 -0.000026 -0.000003 -16.745975 -0.101819 -10.211688 -11.385638 0.070157 -0.055682 -11.340829 0.009250 -0.046379 0.000265 0.000014 0.000005 -18.524488 -0.307922 -10.083417 -12.645131 0.135704 -0.058589 -12.475041 0.019807 -0.084254 -0.000214 0.000009 -0.000046 0.000000 0.000000 0.000000 0.000000 0.000000 0.000000 -9.082281 -13.380382 24.950243 -0.213940 -1.132750 8.464864 3.054193 -9.626459 12.975853 -0.948216 2.037800 -15.273766 0.000000 0.000000 0.000000 0.000000 0.000000 0.000000 0.000000 0.000000 0.000000 3.123341 -5.447519 18.214130 0.175939 0.688376 13.995940 -1.611216 2.361250 13.569785 0.994860 -0.950294 -18.441803 0.000000 0.000000 0.000000 0.000000 0.000000 0.000000 0.000000 0.000000 0.000000 
0.768545 87.788277 7.837924 0.387406 -0.122290 -19.935179 1.163926 0.205718 10.888404 0.720161 0.314993 1.838658 -7.797038 4.728112 18.992783 -5.642088 0.953688 9.094079 -23.599169 3.787216 18.953178 -2.979133 -3.721494 4.040584 -1.949799 -2.430310 -19.929411 0.000000 0.000000 0.000000 92.634285 -0.505054 15.787172 50.833317 -40.193348 24.599766 -0.302748 12.044321 29.892946 6.201967 18.802479 -5.722331 10.451493 -1.811825 39.967701 0.000010 0.000022 -25.642427 -0.000003 0.000046 -17.769926 0.000027 0.000006 -0.000037 12.355233 0.200736 -8.745070 9.331065 -0.025276 -0.133548 9.513721 -0.008907 -0.151167 -0.000004 0.000028 -0.000013 12.437216 0.068645 -9.745117 8.847266 -0.027700 -0.076013 8.820653 0.008118 -0.071633 0.000033 0.000063 0.000002 15.911483 -0.118073 -8.748188 10.729416 0.036256 0.114522 10.693398 -0.011979 0.091513 -0.000027 0.000177 -0.000001 17.909332 -0.258494 -9.685891 11.898643 0.051596 0.417551 11.759559 -0.053850 0.324434 0.000078 0.000004 0.000031 0.000000 0.000000 0.000000 0.000000 0.000000 0.000000 -93.040733 0.603730 9.743853 -52.398842 20.950960 10.445078 -1.179897 -9.977485 37.568420 -7.158247 -17.402252 -11.505121 -10.561246 1.819984 39.926376 0.000023 0.000029 -25.810827 0.000080 -0.000010 -17.943115 0.000143 -0.000006 0.000962 -14.275909 0.254444 -10.120536 -10.055997 -0.042985 0.046941 -10.100773 -0.012554 0.091255 0.000013 0.000276 -0.000007 -13.992949 0.116688 -10.920117 -9.798289 -0.035082 0.024812 -9.639593 0.001317 0.025903 0.000851 -0.000027 -0.000001 -16.858162 -0.099089 -10.189789 -11.430759 0.071523 -0.051075 -11.377969 0.009953 -0.044304 0.000375 0.000014 0.000005 -18.559595 -0.301378 -10.099187 -12.624974 0.139748 -0.040954 -12.442517 0.022969 -0.071023 -0.000271 0.000009 -0.000047 0.000000 0.000000 0.000000 0.000000 0.000000 0.000000 -9.097088 -13.276798 24.940842 -0.214127 -1.136405 8.434716 3.067581 -9.545200 13.043628 -0.956385 2.030835 -15.330714 0.000000 0.000000 0.000000 0.000000 0.000000 0.000000 0.000000 0.000000 0.000000 3.119518 -5.427875 18.182306 0.180323 0.688072 14.014604 -1.632442 2.428983 13.594558 0.980152 -0.934035 -18.464405 0.000000 0.000000 0.000000 0.000000 0.000000 0.000000 0.000000 0.000000 0.000000 
